
<svg width="700" height="700" viewBox="0 0 700 700" fill="none" xmlns="http://www.w3.org/2000/svg">
  <defs>
    <linearGradient id="g" x1="120" y1="120" x2="580" y2="580">
      <stop stop-color="#06B6D4"/>
      <stop offset="0.55" stop-color="#3B82F6"/>
      <stop offset="1" stop-color="#7C3AED"/>
    </linearGradient>
    <filter id="glow">
      <feGaussianBlur stdDeviation="7" result="blur"/>
      <feMerge>
        <feMergeNode in="blur"/>
        <feMergeNode in="SourceGraphic"/>
      </feMerge>
    </filter>
  </defs>

  <rect width="700" height="700" rx="150" fill="#FFFFFF"/>
  <circle cx="350" cy="350" r="250" fill="#F8FAFC" stroke="url(#g)" stroke-width="14" filter="url(#glow)"/>
  <path d="M205 160H285V420H430V495H205V160Z" fill="#111827"/>
  <path d="M385 160H490V420C490 485 445 530 380 530H320V455H370C380 455 385 448 385 435V160Z" fill="url(#g)"/>
  <path d="M135 335L200 280V335L165 360L200 385V440L135 385V335Z" fill="#06B6D4"/>
  <path d="M565 335L500 280V335L535 360L500 385V440L565 385V335Z" fill="#7C3AED"/>
  <text x="350" y="620" text-anchor="middle" font-size="58" font-family="Arial" font-weight="900" fill="#111827">Lenin Johan</text>
</svg>
